<?xml version="1.0" standalone="no"?>
<!DOCTYPE svg PUBLIC "-//W3C//DTD SVG 20010904//EN"
 "http://www.w3.org/TR/2001/REC-SVG-20010904/DTD/svg10.dtd">
<svg version="1.0" xmlns="http://www.w3.org/2000/svg"
 width="133.000000pt" height="40.000000pt" viewBox="0 0 133.000000 40.000000"
 preserveAspectRatio="xMidYMid meet">

<g transform="translate(0.000000,40.000000) scale(0.100000,-0.100000)"
fill="#000000" stroke="none">
<path d="M175 395 c-5 -2 -22 -6 -37 -9 -35 -8 -94 -59 -115 -100 -21 -40 -21
-132 0 -172 20 -39 79 -91 115 -101 35 -10 1019 -10 1054 0 36 10 95 62 115
101 21 40 21 132 1 171 -18 34 -61 76 -98 96 -20 11 -123 14 -525 16 -275 1
-504 0 -510 -2z m235 -146 c0 -5 -7 -9 -15 -9 -15 0 -20 12 -9 23 8 8 24 -1
24 -14z m-120 -4 c0 -9 -9 -15 -25 -15 -14 0 -25 -4 -25 -10 0 -5 9 -10 20
-10 11 0 20 -7 20 -15 0 -8 -9 -15 -20 -15 -13 0 -20 -7 -20 -20 0 -11 -7 -20
-15 -20 -12 0 -15 13 -15 60 l0 60 40 0 c29 0 40 -4 40 -15z m640 -44 c0 -56
-1 -59 -27 -64 -37 -7 -52 1 -60 31 -7 31 7 56 36 60 11 2 21 10 21 18 0 8 7
14 15 14 12 0 15 -13 15 -59z m-562 -17 c3 -38 1 -42 -24 -47 -38 -7 -54 1
-54 27 0 15 9 26 28 33 l27 12 -27 -6 c-16 -3 -28 -1 -28 4 0 17 14 24 45 21
27 -3 30 -6 33 -44z m42 1 c0 -33 -4 -45 -15 -45 -11 0 -15 12 -15 45 0 33 4
45 15 45 11 0 15 -12 15 -45z m70 33 c0 -9 3 -9 12 0 18 18 56 15 67 -6 5 -9
7 -29 4 -44 -9 -49 -83 -43 -83 7 0 16 -6 25 -15 25 -10 0 -15 -10 -15 -30 0
-20 -5 -30 -15 -30 -11 0 -15 12 -15 45 0 43 1 45 30 45 17 0 30 -5 30 -12z
m160 -24 c0 -45 24 -42 28 4 5 52 32 41 32 -13 0 -32 -4 -45 -14 -45 -8 0 -21
-3 -29 -6 -22 -8 -47 24 -47 62 0 24 5 34 15 34 11 0 15 -11 15 -36z m148 -11
c2 -34 0 -43 -12 -43 -12 0 -16 10 -16 36 0 21 -4 33 -10 29 -5 -3 -10 -19
-10 -36 0 -19 -5 -29 -15 -29 -11 0 -15 12 -15 46 l0 45 38 -3 c36 -3 37 -4
40 -45z m235 26 c14 -23 1 -67 -23 -74 -46 -15 -82 49 -48 83 17 17 58 11 71
-9z m95 -26 c2 -34 0 -43 -12 -43 -12 0 -16 10 -16 36 0 21 -4 33 -10 29 -5
-3 -10 -19 -10 -36 0 -19 -5 -29 -15 -29 -11 0 -15 12 -15 46 l0 45 38 -3 c36
-3 37 -4 40 -45z"/>
<path d="M874 196 c-6 -17 2 -36 17 -36 12 0 12 37 -1 45 -6 3 -13 -1 -16 -9z"/>
<path d="M518 163 c7 -3 16 -2 19 1 4 3 -2 6 -13 5 -11 0 -14 -3 -6 -6z"/>
<path d="M976 203 c-12 -12 -6 -43 9 -43 8 0 15 9 15 19 0 21 -13 34 -24 24z"/>
</g>
</svg>
